<svg width="20" height="20" viewBox="0 0 20 20" fill="none" xmlns="http://www.w3.org/2000/svg">
<path fill-rule="evenodd" clip-rule="evenodd" d="M7.05806 7.05806C7.30214 6.81398 7.69786 6.81398 7.94194 7.05806L12.9419 12.0581C13.186 12.3022 13.186 12.6978 12.9419 12.9419C12.6978 13.186 12.3021 13.186 12.058 12.9419L7.05806 7.94194C6.81398 7.69786 6.81398 7.30213 7.05806 7.05806Z" fill="#686B7E"/>
<path fill-rule="evenodd" clip-rule="evenodd" d="M12.9419 7.05806C13.186 7.30214 13.186 7.69786 12.9419 7.94194L7.94194 12.9419C7.69786 13.186 7.30213 13.186 7.05806 12.9419C6.81398 12.6978 6.81398 12.3021 7.05806 12.058L12.0581 7.05806C12.3022 6.81398 12.6978 6.81398 12.9419 7.05806Z" fill="#686B7E"/>
<path fill-rule="evenodd" clip-rule="evenodd" d="M7.05806 7.05806C7.30214 6.81398 7.69786 6.81398 7.94194 7.05806L12.9419 12.0581C13.186 12.3022 13.186 12.6978 12.9419 12.9419C12.6978 13.186 12.3021 13.186 12.058 12.9419L7.05806 7.94194C6.81398 7.69786 6.81398 7.30213 7.05806 7.05806Z" fill="#686B7E"/>
<path fill-rule="evenodd" clip-rule="evenodd" d="M12.9419 7.05806C13.186 7.30214 13.186 7.69786 12.9419 7.94194L7.94194 12.9419C7.69786 13.186 7.30213 13.186 7.05806 12.9419C6.81398 12.6978 6.81398 12.3021 7.05806 12.058L12.0581 7.05806C12.3022 6.81398 12.6978 6.81398 12.9419 7.05806Z" fill="#686B7E"/>
</svg>
