<svg width="26" height="26" viewBox="0 0 26 26" fill="none" xmlns="http://www.w3.org/2000/svg">
<path d="M13 6.5C13.5983 6.5 14.0833 6.98503 14.0833 7.58333V11.9167H18.4167C19.015 11.9167 19.5 12.4017 19.5 13C19.5 13.5983 19.015 14.0833 18.4167 14.0833H14.0833V18.4167C14.0833 19.015 13.5983 19.5 13 19.5C12.4017 19.5 11.9167 19.015 11.9167 18.4167V14.0833H7.58333C6.98503 14.0833 6.5 13.5983 6.5 13C6.5 12.4017 6.98503 11.9167 7.58333 11.9167H11.9167V7.58333C11.9167 6.98503 12.4017 6.5 13 6.5Z" fill="#686B7E"/>
<path fill-rule="evenodd" clip-rule="evenodd" d="M2.16663 4.87499C2.16663 3.37922 3.37919 2.16666 4.87496 2.16666H21.125C22.6207 2.16666 23.8333 3.37922 23.8333 4.87499V21.125C23.8333 22.6207 22.6207 23.8333 21.125 23.8333H4.87496C3.37919 23.8333 2.16663 22.6207 2.16663 21.125V4.87499ZM4.87496 4.33332C4.57581 4.33332 4.33329 4.57584 4.33329 4.87499V21.125C4.33329 21.4241 4.57581 21.6667 4.87496 21.6667H21.125C21.4241 21.6667 21.6666 21.4241 21.6666 21.125V4.87499C21.6666 4.57584 21.4241 4.33332 21.125 4.33332H4.87496Z" fill="#686B7E"/>
</svg>
