<svg width="22" height="24" viewBox="0 0 22 24" fill="none" xmlns="http://www.w3.org/2000/svg">
<path d="M15.0792 15.7583C14.8625 15.7583 14.6891 15.9221 14.6651 16.1388C14.4772 17.9978 12.9072 19.4475 10.9952 19.4475C9.088 19.4475 7.51795 17.9978 7.32531 16.1388C7.30123 15.9269 7.12785 15.7583 6.91112 15.7583H1.90236C0.852452 15.7583 0 16.6108 0 17.6607V21.6484C0 22.6983 0.852452 23.5508 1.90236 23.5508H20.0976C21.1475 23.5508 22 22.6983 22 21.6484V17.6655C22 16.6156 21.1475 15.7631 20.0976 15.7631H15.0792V15.7583Z" fill="black"/>
<path d="M13.8415 9.5648L12.3534 11.053V1.35333C12.3534 0.60683 11.7465 0 11 0C10.2535 0 9.64672 0.60683 9.64672 1.35333V11.053L8.15854 9.5648C7.70101 9.10727 6.96896 8.99168 6.42955 9.35289C5.69269 9.84413 5.62045 10.8507 6.21283 11.4431L10.2006 15.4308C10.6437 15.8739 11.3613 15.8739 11.8043 15.4308L15.7921 11.4431C16.3845 10.8507 16.3122 9.84413 15.5753 9.35289C15.0311 8.98687 14.2991 9.10245 13.8415 9.5648Z" fill="black"/>
</svg>
