<svg width="20" height="20" viewBox="0 0 20 20" fill="none" xmlns="http://www.w3.org/2000/svg">
<path d="M13.6735 2.0408H11.2245V6.12243H13.6735V2.0408Z" fill="white"/>
<path d="M16.2915 0H0.204102V20H19.7959V3.50449L16.2915 0ZM4.28573 0.816327H14.898V7.34694H4.28573V0.816327ZM16.1225 19.1837H3.46941V10.6122H16.1225V19.1837Z" fill="white"/>
<path d="M5.51021 13.0612H8.36736C8.59307 13.0612 8.77552 12.8788 8.77552 12.6531C8.77552 12.4274 8.59307 12.2449 8.36736 12.2449H5.51021C5.2845 12.2449 5.10205 12.4274 5.10205 12.6531C5.10205 12.8788 5.2845 13.0612 5.51021 13.0612Z" fill="white"/>
<path d="M5.51021 14.6939H9.59185C9.81756 14.6939 10 14.5114 10 14.2857C10 14.06 9.81756 13.8776 9.59185 13.8776H5.51021C5.2845 13.8776 5.10205 14.06 5.10205 14.2857C5.10205 14.5114 5.2845 14.6939 5.51021 14.6939Z" fill="white"/>
<path d="M10.8164 14.6939C10.9266 14.6939 11.0286 14.649 11.1062 14.5755C11.1796 14.498 11.2245 14.3918 11.2245 14.2857C11.2245 14.1796 11.1796 14.0731 11.1062 13.9959C10.9551 13.8449 10.6817 13.8449 10.5307 13.9959C10.4531 14.0731 10.4082 14.1751 10.4082 14.2857C10.4082 14.3959 10.4527 14.498 10.5266 14.5755C10.6037 14.649 10.7058 14.6939 10.8164 14.6939Z" fill="white"/>
</svg>
