<svg width="19" height="19" viewBox="0 0 19 19" fill="none" xmlns="http://www.w3.org/2000/svg">
<path d="M1.14685 1.14687C1.4633 0.830517 1.89245 0.652798 2.33991 0.652798C2.78738 0.652798 3.21652 0.830517 3.53297 1.14687L9.49997 7.11387L15.467 1.14687C15.7852 0.839483 16.2115 0.669393 16.654 0.673237C17.0964 0.677082 17.5197 0.854555 17.8325 1.16743C18.1454 1.48031 18.3229 1.90355 18.3267 2.34601C18.3306 2.78847 18.1605 3.21473 17.8531 3.533L11.8861 9.5L17.8531 15.467C18.1605 15.7853 18.3306 16.2115 18.3267 16.654C18.3229 17.0964 18.1454 17.5197 17.8325 17.8326C17.5197 18.1454 17.0964 18.3229 16.654 18.3268C16.2115 18.3306 15.7852 18.1605 15.467 17.8531L9.49997 11.8861L3.53297 17.8531C3.21471 18.1605 2.78844 18.3306 2.34598 18.3268C1.90353 18.3229 1.48028 18.1454 1.1674 17.8326C0.854528 17.5197 0.677055 17.0964 0.673211 16.654C0.669366 16.2115 0.839456 15.7853 1.14685 15.467L7.11385 9.5L1.14685 3.533C0.830491 3.21655 0.652771 2.7874 0.652771 2.33994C0.652771 1.89247 0.830491 1.46333 1.14685 1.14687Z" fill="#1E1F2B" fill-opacity="0.2"/>
</svg>
