<svg width="232" height="232" viewBox="0 0 232 232" fill="none" xmlns="http://www.w3.org/2000/svg">
<path d="M36.25 188.5H195.75C197.673 188.5 199.517 189.264 200.877 190.623C202.236 191.983 203 193.827 203 195.75C203 197.673 202.236 199.517 200.877 200.877C199.517 202.236 197.673 203 195.75 203H36.25C34.3272 203 32.4831 202.236 31.1235 200.877C29.7638 199.517 29 197.673 29 195.75C29 193.827 29.7638 191.983 31.1235 190.623C32.4831 189.264 34.3272 188.5 36.25 188.5ZM123.25 57.478V159.5H108.75V56.028L53.7515 111.027L43.5 100.775L115.275 29L187.05 100.775L176.784 111.027L123.25 57.478Z" fill="white"/>
</svg>
