<svg width="23" height="17" viewBox="0 0 23 17" fill="none" xmlns="http://www.w3.org/2000/svg">
<path d="M1.15069 17H21.8513C22.0609 16.9993 22.2663 16.9423 22.4455 16.8349C22.6247 16.7276 22.7708 16.5741 22.8681 16.3908C22.9655 16.2076 23.0104 16.0016 22.998 15.7951C22.9856 15.5885 22.9164 15.3892 22.7978 15.2186L12.4475 0.458968C12.0185 -0.152989 10.9858 -0.152989 10.5557 0.458968L0.205366 15.2186C0.0855608 15.3889 0.0153045 15.5883 0.00222983 15.7952C-0.0108449 16.002 0.0337622 16.2085 0.131205 16.3921C0.228647 16.5758 0.375198 16.7295 0.554934 16.8367C0.734671 16.9438 0.940719 17.0003 1.15069 17Z" fill="black"/>
</svg>
