<svg width="24" height="24" viewBox="0 0 24 24" fill="none" xmlns="http://www.w3.org/2000/svg">
<path d="M20.0169 2.99366H15.2835C15.1293 1.31729 13.7159 0 12 0C10.2841 0 8.87074 1.31729 8.71651 2.99366H3.98311C2.5842 2.99366 1.44611 4.13175 1.44611 5.53067C1.44611 6.89554 2.52964 8.01154 3.8816 8.0651V21.0063C3.8816 22.6571 5.22455 24 6.87526 24H17.1247C18.7754 24 20.1184 22.6571 20.1184 21.0063V8.06505C21.4703 8.01154 22.5539 6.89554 22.5539 5.53061C22.5539 4.1317 21.4158 2.99366 20.0169 2.99366ZM8.69978 19.7673C8.69978 20.1877 8.359 20.5284 7.93871 20.5284C7.51835 20.5284 7.17764 20.1877 7.17764 19.7673V9.76324C7.17764 9.34289 7.51841 9.00217 7.93871 9.00217C8.35906 9.00217 8.69978 9.34294 8.69978 9.76324V19.7673ZM12.7611 19.7673C12.7611 20.1877 12.4203 20.5284 12 20.5284C11.5797 20.5284 11.2389 20.1877 11.2389 19.7673V9.76324C11.2389 9.34289 11.5797 9.00217 12 9.00217C12.4204 9.00217 12.7611 9.34294 12.7611 9.76324V19.7673ZM16.8224 19.7673C16.8224 20.1877 16.4816 20.5284 16.0613 20.5284C15.641 20.5284 15.3002 20.1877 15.3002 19.7673V9.76324C15.3002 9.34289 15.641 9.00217 16.0613 9.00217C16.4817 9.00217 16.8224 9.34294 16.8224 9.76324V19.7673Z" fill="white"/>
</svg>
