<svg width="18" height="18" viewBox="0 0 18 18" fill="none" xmlns="http://www.w3.org/2000/svg">
<g clip-path="url(#clip0_630_177)">
<path d="M7.8766 1.05207C8.2183 0.855191 8.60567 0.751556 9.00002 0.751556C9.39437 0.751556 9.78182 0.855199 10.1234 1.0521L10.125 1.053L15.375 4.05299C15.4974 4.12366 15.6124 4.20541 15.7186 4.29694L8.99995 8.13615L2.28137 4.29698C2.38762 4.20543 2.50261 4.12367 2.62502 4.053L2.62792 4.05132L7.8766 1.05207Z" fill="white"/>
<path d="M1.53632 5.59888C1.51238 5.73048 1.50014 5.86445 1.5 5.99925V12.0008C1.5004 12.3953 1.60456 12.7828 1.80202 13.1245C1.99948 13.4661 2.28329 13.7497 2.625 13.9471L2.62789 13.9487L7.875 16.9471L7.87642 16.9478C7.9959 17.0167 8.121 17.0742 8.25 17.1198V9.4353L1.53632 5.59888Z" fill="white"/>
<path d="M9.75 17.1198C9.87907 17.0742 10.0042 17.0167 10.1237 16.9478L10.125 16.9471L15.3721 13.9487L15.375 13.9471C15.7167 13.7497 16.0005 13.4661 16.198 13.1245C16.3954 12.7828 16.4996 12.3953 16.5 12.0008V5.99924C16.4999 5.86443 16.4876 5.73043 16.4637 5.59882L9.75 9.43522V17.1198Z" fill="white"/>
</g>
<defs>
<clipPath id="clip0_630_177">
<rect width="18" height="18" fill="white"/>
</clipPath>
</defs>
</svg>
