<svg width="13" height="15" viewBox="-1.9 -2.25 16.9 19.5" fill="none" xmlns="http://www.w3.org/2000/svg">
<path d="M8.80971 0H0.988281V15H12.0117V3.42857L8.80971 0ZM6.78624 13.1082H2.97808C2.81277 13.1082 2.66889 12.9765 2.66889 12.799C2.66889 12.6337 2.80053 12.4898 2.97808 12.4898H6.78624C6.95155 12.4898 7.09542 12.6214 7.09542 12.799C7.09542 12.9643 6.96685 13.1082 6.78624 13.1082ZM10.025 11.1551H2.97808C2.81277 11.1551 2.66889 11.0235 2.66889 10.8459C2.66889 10.6806 2.80053 10.5367 2.97808 10.5367H10.025C10.1903 10.5367 10.3342 10.6684 10.3342 10.8459C10.3342 11.0235 10.1934 11.1551 10.025 11.1551ZM10.025 9.21429H2.97808C2.81277 9.21429 2.66889 9.08265 2.66889 8.9051C2.66889 8.7398 2.80053 8.59592 2.97808 8.59592H10.025C10.1903 8.59592 10.3342 8.72755 10.3342 8.9051C10.3342 9.08265 10.1934 9.21429 10.025 9.21429ZM10.025 7.27347H2.97808C2.81277 7.27347 2.66889 7.14184 2.66889 6.96429C2.66889 6.78673 2.80053 6.6551 2.97808 6.6551H10.025C10.1903 6.6551 10.3342 6.78673 10.3342 6.96429C10.3342 7.14184 10.1934 7.27347 10.025 7.27347ZM10.025 5.32041H2.97808C2.81277 5.32041 2.66889 5.18878 2.66889 5.01122C2.66889 4.84592 2.80053 4.70204 2.97808 4.70204H10.025C10.1903 4.70204 10.3342 4.83367 10.3342 5.01122C10.3342 5.19184 10.1934 5.32041 10.025 5.32041ZM8.19134 4.03469V0.606122L11.3934 4.03469H8.19134Z" fill="white"/>
</svg>
