<svg width="25" height="25" viewBox="0 0 25 25" fill="none" xmlns="http://www.w3.org/2000/svg">
<path fill-rule="evenodd" clip-rule="evenodd" d="M8.2396 3.36458L3.3646 8.24271V8.23229C3.20983 8.39104 3.12376 8.60433 3.12501 8.82604V16.174C3.12501 16.4031 3.20835 16.6115 3.3646 16.7677L8.22918 21.6354C8.38543 21.7917 8.60418 21.875 8.82293 21.875H16.1771C16.4063 21.875 16.6146 21.7917 16.7708 21.6354L21.6354 16.7677C21.7902 16.609 21.8763 16.3957 21.875 16.174V8.82604C21.875 8.59687 21.7917 8.38854 21.6354 8.23229L16.7708 3.36458C16.6121 3.20981 16.3988 3.12375 16.1771 3.125H8.83335C8.60418 3.125 8.39585 3.20833 8.2396 3.36458ZM12.5 7.29166C12.7763 7.29166 13.0412 7.40141 13.2366 7.59676C13.4319 7.79211 13.5417 8.05706 13.5417 8.33333V13.5417C13.5417 13.8179 13.4319 14.0829 13.2366 14.2782C13.0412 14.4736 12.7763 14.5833 12.5 14.5833C12.2237 14.5833 11.9588 14.4736 11.7634 14.2782C11.5681 14.0829 11.4583 13.8179 11.4583 13.5417V8.33333C11.4583 8.05706 11.5681 7.79211 11.7634 7.59676C11.9588 7.40141 12.2237 7.29166 12.5 7.29166ZM11.4583 16.6667C11.4583 16.3904 11.5681 16.1254 11.7634 15.9301C11.9588 15.7347 12.2237 15.625 12.5 15.625H12.5083C12.7846 15.625 13.0496 15.7347 13.2449 15.9301C13.4403 16.1254 13.55 16.3904 13.55 16.6667C13.55 16.9429 13.4403 17.2079 13.2449 17.4032C13.0496 17.5986 12.7846 17.7083 12.5083 17.7083H12.5C12.2237 17.7083 11.9588 17.5986 11.7634 17.4032C11.5681 17.2079 11.4583 16.9429 11.4583 16.6667Z" fill="white"/>
</svg>
