<svg width="41" height="41" viewBox="0 0 41 41" fill="none" xmlns="http://www.w3.org/2000/svg">
<g clip-path="url(#clip0_163_26)">
<path d="M20.3012 22.1867C20.3012 22.1867 21.9288 23.1288 22.5325 23.626C23.1361 24.1231 24.4034 24.5044 24.3461 25.1743C24.3256 25.4144 20.3226 24.6738 20.3226 24.6738C20.4178 23.793 20.1101 23.0499 20.3012 22.1867H20.3012Z" fill="url(#paint0_linear_163_26)"/>
<path d="M16.2449 12C16.2449 12 14.6147 17.0972 14.0564 17.4601C12.7824 18.0521 11.8238 18.986 10.9986 20.102C8.48609 24.4823 5.85246 26.1023 6.00644 26.4384C6.16042 26.7744 9.14216 25.4782 10.2783 24.6013C10.2811 24.5991 10.284 24.5968 10.2867 24.5946C10.4714 25.2996 10.8424 25.9956 11.4656 26.6493C13.5829 28.8702 15.8927 29.1432 18.0817 28.6626C21.0088 28.0199 22.0174 26.3974 22.0909 25.5006C22.2778 23.2238 20.3932 21.4771 20.8417 20.8268C21.4368 19.9638 26.3047 20.0639 26.9104 20.3964C27.4647 20.7007 28.4059 26.3744 29.2046 26.6477C29.5821 26.7768 29.5195 23.6954 30.757 21.1299C31.9945 18.5644 34.3492 15.9722 34.0241 15.6824C33.699 15.3927 28.4068 18.6648 27.7728 18.6716C25.2564 18.6986 21.5179 16.9638 20.5486 16.4745C18.1428 15.26 16.2449 12 16.2449 12L16.2449 12Z" fill="url(#paint1_linear_163_26)"/>
<path d="M20.5 0.256927C17.8416 0.256904 15.2093 0.78049 12.7533 1.79779C10.2973 2.81509 8.06568 4.30619 6.18594 6.18594C4.30619 8.06568 2.81509 10.2973 1.79779 12.7533C0.78049 15.2093 0.256904 17.8416 0.256927 20.5C0.256904 23.1584 0.78049 25.7907 1.79779 28.2467C2.81509 30.7027 4.30619 32.9343 6.18594 34.8141C8.06568 36.6938 10.2973 38.1849 12.7533 39.2022C15.2093 40.2195 17.8416 40.7431 20.5 40.7431C23.1584 40.7431 25.7907 40.2195 28.2467 39.2022C30.7027 38.1849 32.9343 36.6938 34.8141 34.8141C36.6938 32.9343 38.1849 30.7027 39.2022 28.2467C40.2195 25.7907 40.7431 23.1584 40.7431 20.5C40.7431 17.8416 40.2195 15.2093 39.2022 12.7533C38.1849 10.2973 36.6938 8.06568 34.8141 6.18594C32.9343 4.30619 30.7027 2.81509 28.2467 1.79779C25.7907 0.78049 23.1584 0.256904 20.5 0.256927ZM20.5 3.41668C22.7434 3.41668 24.9649 3.85855 27.0375 4.71707C29.1102 5.57559 30.9934 6.83393 32.5798 8.42027C34.1661 10.0066 35.4244 11.8899 36.283 13.9625C37.1415 16.0351 37.5833 18.2566 37.5833 20.5C37.5833 25.0308 35.7835 29.376 32.5798 32.5798C29.376 35.7835 25.0308 37.5833 20.5 37.5833C18.2566 37.5833 16.0351 37.1415 13.9625 36.283C11.8899 35.4244 10.0066 34.1661 8.42027 32.5798C5.21652 29.376 3.41668 25.0308 3.41668 20.5C3.41668 15.9692 5.21652 11.624 8.42027 8.42027C11.624 5.21652 15.9692 3.41668 20.5 3.41668Z" fill="url(#paint2_linear_163_26)"/>
</g>
<defs>
<linearGradient id="paint0_linear_163_26" x1="20.3226" y1="23.6305" x2="24.348" y2="23.6305" gradientUnits="userSpaceOnUse">
<stop stop-color="#6F7DFF"/>
<stop offset="1" stop-color="#6F7DFF"/>
</linearGradient>
<linearGradient id="paint1_linear_163_26" x1="10.0549" y1="20.2358" x2="34.1403" y2="20.2358" gradientUnits="userSpaceOnUse">
<stop stop-color="#6F7DFF"/>
<stop offset="1" stop-color="#6F7DFF"/>
</linearGradient>
<linearGradient id="paint2_linear_163_26" x1="0.257108" y1="20.5" x2="40.7429" y2="20.5" gradientUnits="userSpaceOnUse">
<stop stop-color="#6F7DFF"/>
<stop offset="1" stop-color="#6F7DFF"/>
</linearGradient>
<clipPath id="clip0_163_26">
<rect width="41" height="41" fill="white"/>
</clipPath>
</defs>
</svg>
