<?xml version="1.0" encoding="utf-8"?>
<svg viewBox="170.502 118.905 236.8 157.992" xmlns="http://www.w3.org/2000/svg">
  <path style="fill: rgb(216, 216, 216); stroke: rgb(0, 0, 0);" d="M 216.424 168.797 C 185.236 178.107 164.503 218.372 172.063 236.624 C 173.938 241.15 174.247 249.09 188.203 263.046 C 207.783 282.626 251.67 279.861 272.335 264.643 C 287.923 253.163 283.862 227.089 264.347 209.798 C 248.779 200.016 299.907 187.92 333.038 203.408 C 325.891 226.499 336.135 261.847 344.752 273.695 C 345.974 249.538 399.274 142.83 407.052 147.497 C 411.824 134.688 346.983 161.294 339.427 181.576 L 274.997 164.537 C 259.392 160.492 234.519 132.818 230.187 118.905 C 221.48 122.216 239.345 160.762 216.424 168.797 Z"/>
</svg>