<svg width="15" height="10" viewBox="0 0 15 10" fill="none" xmlns="http://www.w3.org/2000/svg">
<path d="M2.94685 0.836613C2.35967 0.252226 1.45974 0.299354 0.936811 0.941875C0.413879 1.5844 0.465964 2.579 1.05315 3.16339L2.94685 0.836613ZM6.32583 8.41096L7.38902 9.46908L9.28272 7.14231L8.21953 6.08418L6.32583 8.41096ZM1.05315 3.16339L6.32583 8.41096L8.21953 6.08418L2.94685 0.836613L1.05315 3.16339Z" fill="#6F7DFF"/>
<path d="M11.6408 0.836613C12.228 0.252226 13.1279 0.299354 13.6508 0.941875C14.1738 1.5844 14.1217 2.579 13.5345 3.16339L11.6408 0.836613ZM8.26182 8.41096L7.19863 9.46908L5.30492 7.14231L6.36811 6.08418L8.26182 8.41096ZM13.5345 3.16339L8.26182 8.41096L6.36811 6.08418L11.6408 0.836613L13.5345 3.16339Z" fill="#6F7DFF"/>
</svg>
