<svg width="9" height="13" viewBox="0 0 9 13" fill="none" xmlns="http://www.w3.org/2000/svg">
<path d="M0.851889 10.9606C0.460154 11.3499 0.491348 11.9462 0.921561 12.2926C1.35177 12.6389 2.0181 12.604 2.40983 12.2147L0.851889 10.9606ZM7.71535 6.94203L8.42465 6.23712L6.86671 4.983L6.15741 5.6879L7.71535 6.94203ZM2.40983 12.2147L7.71535 6.94203L6.15741 5.6879L0.851889 10.9606L2.40983 12.2147Z" fill="black"/>
<path d="M0.851889 1.62706C0.460154 1.23775 0.491348 0.641408 0.921561 0.295092C1.35177 -0.0512246 2.0181 -0.0163711 2.40983 0.372939L0.851889 1.62706ZM7.71535 5.64562L8.42465 6.35053L6.86671 7.60465L6.15741 6.89974L7.71535 5.64562ZM2.40983 0.372939L7.71535 5.64562L6.15741 6.89974L0.851889 1.62706L2.40983 0.372939Z" fill="black"/>
</svg>
