<svg width="25" height="26" viewBox="0 0 25 26" fill="none" xmlns="http://www.w3.org/2000/svg">
<path d="M23.3594 15.2609L20.2344 9.7826C20.0781 9.54782 19.8437 9.3913 19.5312 9.3913H13.2812C12.9687 9.3913 12.7344 9.54782 12.5781 9.7826L9.45313 15.2609C9.29688 15.4956 9.29688 15.8087 9.45313 16.0435L12.5781 21.5217C12.7344 21.7565 12.9687 21.913 13.2812 21.913H19.5312C19.8437 21.913 20.0781 21.7565 20.2344 21.5217L23.3594 16.0435C23.5156 15.8087 23.5156 15.4956 23.3594 15.2609ZM16.4062 19.5652C14.2187 19.5652 12.5 17.8435 12.5 15.6522C12.5 13.4609 14.2187 11.7391 16.4062 11.7391C18.5937 11.7391 20.3125 13.4609 20.3125 15.6522C20.3125 17.8435 18.5937 19.5652 16.4062 19.5652Z" fill="white"/>
<path d="M12.1875 7.43478L9.92187 3.52174C9.84375 3.28695 9.53125 3.13043 9.29687 3.13043H4.76562C4.53125 3.13043 4.21875 3.28695 4.0625 3.52174L1.79687 7.43478C1.64063 7.66956 1.64063 7.98261 1.79687 8.21739L4.0625 12.1304C4.21875 12.3652 4.53125 12.5217 4.76562 12.5217H9.29687C9.60937 12.5217 9.84375 12.3652 10 12.1304L12.2656 8.21739C12.3437 7.98261 12.3438 7.66956 12.1875 7.43478ZM7.03125 10.1739C5.70312 10.1739 4.6875 9.15652 4.6875 7.82608C4.6875 6.49565 5.70312 5.47826 7.03125 5.47826C8.35937 5.47826 9.375 6.49565 9.375 7.82608C9.375 9.15652 8.35937 10.1739 7.03125 10.1739Z" fill="white"/>
</svg>
