<svg width="20" height="20" viewBox="0 0 20 20" fill="none" xmlns="http://www.w3.org/2000/svg">
<path d="M10.702 19.3021V5.77961L13.102 8.17961C13.2367 8.3143 13.4163 8.38369 13.5959 8.38369C13.7755 8.38369 13.9551 8.3143 14.0898 8.17961C14.3633 7.90614 14.3633 7.46124 14.0898 7.18777L10.4939 3.59185C10.2327 3.33063 9.76735 3.33063 9.50204 3.59185L5.90612 7.18777C5.63265 7.46124 5.63265 7.90614 5.90612 8.17961C6.17959 8.45308 6.62449 8.45308 6.89796 8.17961L9.29796 5.77961V19.298C9.29796 19.6857 9.61224 20 9.99592 20C10.3918 20 10.702 19.6898 10.702 19.3021Z" fill="black"/>
<path d="M1.14285 0.697959V4.76735C1.14285 5.1551 1.45714 5.46939 1.84081 5.46939C2.22857 5.46939 2.54285 5.1551 2.54285 4.76735V1.4H17.4612V4.77143C17.4612 5.15918 17.7755 5.47347 18.1592 5.47347C18.5429 5.47347 18.8571 5.15918 18.8571 4.77143V0.697959C18.8571 0.310204 18.5429 0 18.1592 0H1.84489C1.45714 0 1.14285 0.310204 1.14285 0.697959Z" fill="black"/>
</svg>
